<?xml version="1.0" standalone="no"?>
<svg xmlns:xlink="http://www.w3.org/1999/xlink" id="wave" style="transform:rotate(0deg); transition: 0.3s" viewBox="0 0 1440 210" version="1.1" xmlns="http://www.w3.org/2000/svg"><defs><linearGradient id="sw-gradient-0" x1="0" x2="0" y1="1" y2="0"><stop stop-color="rgba(255, 77, 74, 1)" offset="0%"/><stop stop-color="rgba(252, 139, 121, 1)" offset="100%"/></linearGradient></defs><path style="transform:translate(0, 0px); opacity:1" fill="url(#sw-gradient-0)" d="M0,105L10.9,98C21.8,91,44,77,65,84C87.3,91,109,119,131,112C152.7,105,175,63,196,66.5C218.2,70,240,119,262,147C283.6,175,305,182,327,154C349.1,126,371,63,393,56C414.5,49,436,98,458,126C480,154,502,161,524,136.5C545.5,112,567,56,589,28C610.9,0,633,0,655,17.5C676.4,35,698,70,720,73.5C741.8,77,764,49,785,31.5C807.3,14,829,7,851,17.5C872.7,28,895,56,916,56C938.2,56,960,28,982,35C1003.6,42,1025,84,1047,87.5C1069.1,91,1091,56,1113,45.5C1134.5,35,1156,49,1178,70C1200,91,1222,119,1244,136.5C1265.5,154,1287,161,1309,147C1330.9,133,1353,98,1375,101.5C1396.4,105,1418,147,1440,164.5C1461.8,182,1484,175,1505,171.5C1527.3,168,1549,168,1560,168L1570.9,168L1570.9,210L1560,210C1549.1,210,1527,210,1505,210C1483.6,210,1462,210,1440,210C1418.2,210,1396,210,1375,210C1352.7,210,1331,210,1309,210C1287.3,210,1265,210,1244,210C1221.8,210,1200,210,1178,210C1156.4,210,1135,210,1113,210C1090.9,210,1069,210,1047,210C1025.5,210,1004,210,982,210C960,210,938,210,916,210C894.5,210,873,210,851,210C829.1,210,807,210,785,210C763.6,210,742,210,720,210C698.2,210,676,210,655,210C632.7,210,611,210,589,210C567.3,210,545,210,524,210C501.8,210,480,210,458,210C436.4,210,415,210,393,210C370.9,210,349,210,327,210C305.5,210,284,210,262,210C240,210,218,210,196,210C174.5,210,153,210,131,210C109.1,210,87,210,65,210C43.6,210,22,210,11,210L0,210Z"/><defs><linearGradient id="sw-gradient-1" x1="0" x2="0" y1="1" y2="0"><stop stop-color="rgba(255, 135, 133, 1)" offset="0%"/><stop stop-color="rgba(255, 138, 197, 1)" offset="100%"/></linearGradient></defs><path style="transform:translate(0, 50px); opacity:0.9" fill="url(#sw-gradient-1)" d="M0,84L10.9,101.5C21.8,119,44,154,65,147C87.3,140,109,91,131,77C152.7,63,175,84,196,91C218.2,98,240,91,262,84C283.6,77,305,70,327,87.5C349.1,105,371,147,393,164.5C414.5,182,436,175,458,175C480,175,502,182,524,168C545.5,154,567,119,589,94.5C610.9,70,633,56,655,59.5C676.4,63,698,84,720,77C741.8,70,764,35,785,21C807.3,7,829,14,851,21C872.7,28,895,35,916,31.5C938.2,28,960,14,982,17.5C1003.6,21,1025,42,1047,42C1069.1,42,1091,21,1113,35C1134.5,49,1156,98,1178,101.5C1200,105,1222,63,1244,42C1265.5,21,1287,21,1309,24.5C1330.9,28,1353,35,1375,38.5C1396.4,42,1418,42,1440,56C1461.8,70,1484,98,1505,91C1527.3,84,1549,42,1560,21L1570.9,0L1570.9,210L1560,210C1549.1,210,1527,210,1505,210C1483.6,210,1462,210,1440,210C1418.2,210,1396,210,1375,210C1352.7,210,1331,210,1309,210C1287.3,210,1265,210,1244,210C1221.8,210,1200,210,1178,210C1156.4,210,1135,210,1113,210C1090.9,210,1069,210,1047,210C1025.5,210,1004,210,982,210C960,210,938,210,916,210C894.5,210,873,210,851,210C829.1,210,807,210,785,210C763.6,210,742,210,720,210C698.2,210,676,210,655,210C632.7,210,611,210,589,210C567.3,210,545,210,524,210C501.8,210,480,210,458,210C436.4,210,415,210,393,210C370.9,210,349,210,327,210C305.5,210,284,210,262,210C240,210,218,210,196,210C174.5,210,153,210,131,210C109.1,210,87,210,65,210C43.6,210,22,210,11,210L0,210Z"/><defs><linearGradient id="sw-gradient-2" x1="0" x2="0" y1="1" y2="0"><stop stop-color="rgba(244, 75, 117, 1)" offset="0%"/><stop stop-color="rgba(255, 149, 154, 1)" offset="100%"/></linearGradient></defs><path style="transform:translate(0, 100px); opacity:0.8" fill="url(#sw-gradient-2)" d="M0,105L10.9,101.5C21.8,98,44,91,65,73.5C87.3,56,109,28,131,35C152.7,42,175,84,196,87.5C218.2,91,240,56,262,56C283.6,56,305,91,327,112C349.1,133,371,140,393,126C414.5,112,436,77,458,66.5C480,56,502,70,524,63C545.5,56,567,28,589,24.5C610.9,21,633,42,655,70C676.4,98,698,133,720,122.5C741.8,112,764,56,785,31.5C807.3,7,829,14,851,17.5C872.7,21,895,21,916,28C938.2,35,960,49,982,45.5C1003.6,42,1025,21,1047,42C1069.1,63,1091,126,1113,129.5C1134.5,133,1156,77,1178,45.5C1200,14,1222,7,1244,35C1265.5,63,1287,126,1309,140C1330.9,154,1353,119,1375,112C1396.4,105,1418,126,1440,126C1461.8,126,1484,105,1505,80.5C1527.3,56,1549,28,1560,14L1570.9,0L1570.9,210L1560,210C1549.1,210,1527,210,1505,210C1483.6,210,1462,210,1440,210C1418.2,210,1396,210,1375,210C1352.7,210,1331,210,1309,210C1287.3,210,1265,210,1244,210C1221.8,210,1200,210,1178,210C1156.4,210,1135,210,1113,210C1090.9,210,1069,210,1047,210C1025.5,210,1004,210,982,210C960,210,938,210,916,210C894.5,210,873,210,851,210C829.1,210,807,210,785,210C763.6,210,742,210,720,210C698.2,210,676,210,655,210C632.7,210,611,210,589,210C567.3,210,545,210,524,210C501.8,210,480,210,458,210C436.4,210,415,210,393,210C370.9,210,349,210,327,210C305.5,210,284,210,262,210C240,210,218,210,196,210C174.5,210,153,210,131,210C109.1,210,87,210,65,210C43.6,210,22,210,11,210L0,210Z"/></svg>